# xmcd
#
# Track frame offsets: 
#        150
#        19217
#        28046
#        40251
#        58018
#        65888
#        84388
#        98676
#        117676
#        133772
#        155034
#        174952
#        192187
#
# Disc length: 2801 seconds
#
# Revision: 0
# Processed by: cddbd v1.5.2PL0 Copyright (c) Steve Scherf et al.
# Submitted via: ExactAudioCopy v0.90b4
#
DISCID=b50aef0d
DTITLE=Watermelon Slim - Escape From The Chicken Coop
DYEAR=2009
DGENRE=Blues
TTITLE0=Caterpillar Whine
TTITLE1=Skinny Women and Fat Cigars
TTITLE2=You See Me Like I See You
TTITLE3=Wreck on the Highway
TTITLE4=Friends on the Porch
TTITLE5=Should Have Done More
TTITLE6=Hank Williams You Wrote My Life
TTITLE7=America's Wives
TTITLE8=The Way I Am
TTITLE9=It's Never Too Hard to be Humble
TTITLE10=300 Miles
TTITLE11=Truck Drivin' Songs
TTITLE12=18, 18 Wheeler
EXTD=
EXTT0=
EXTT1=
EXTT2=
EXTT3=
EXTT4=
EXTT5=
EXTT6=
EXTT7=
EXTT8=
EXTT9=
EXTT10=
EXTT11=
EXTT12=
PLAYORDER=
